<?xml version="1.0" standalone="no"?>
<!DOCTYPE svg PUBLIC "-//W3C//DTD SVG 20010904//EN"
 "http://www.w3.org/TR/2001/REC-SVG-20010904/DTD/svg10.dtd">
<svg version="1.0" xmlns="http://www.w3.org/2000/svg"
 width="225.000000pt" height="150.000000pt" viewBox="0 0 225.000000 150.000000"
 preserveAspectRatio="xMidYMid meet">

<g transform="translate(0.000000,150.000000) scale(0.100000,-0.100000)"
fill="#000000" stroke="none">
<path d="M34 1478 c8 -13 224 -346 480 -741 256 -395 466 -723 468 -728 2 -6
193 -8 479 -7 l477 3 -254 280 c-139 154 -253 283 -253 288 -1 12 213 8 250
-5 67 -22 137 -79 245 -199 60 -67 118 -133 130 -147 l20 -25 36 69 c40 78 84
199 94 262 6 41 5 43 -70 125 -42 47 -76 88 -76 93 0 5 34 47 75 93 41 46 75
91 75 100 0 38 -44 173 -86 260 l-45 95 -23 -25 c-13 -13 -70 -76 -127 -139
-173 -194 -205 -212 -369 -218 l-115 -4 -230 -259 c-126 -142 -235 -257 -242
-256 -14 2 -483 722 -491 752 l-5 20 20 -20 c11 -11 122 -179 248 -373 l228
-353 32 33 c53 54 920 1022 929 1036 6 9 -191 12 -954 12 l-960 0 14 -22z
m594 -722 c314 -486 387 -606 338 -556 -22 22 -706 1079 -706 1090 0 6 3 10 8
10 4 0 166 -245 360 -544z m1492 197 c0 -5 -40 -53 -89 -108 l-89 -99 89 -98
c80 -88 106 -126 80 -116 -21 7 -193 209 -188 221 2 6 44 56 92 110 80 88 105
110 105 90z"/>
<path d="M1960 1489 c0 -5 -108 -130 -240 -277 -132 -147 -240 -270 -240 -274
0 -14 134 -9 187 7 73 22 114 56 267 224 75 83 142 151 147 151 14 0 94 -168
121 -255 46 -145 48 -134 -37 -227 -41 -46 -75 -87 -75 -92 0 -4 34 -45 75
-90 l74 -83 -19 -79 c-11 -43 -29 -104 -40 -134 -25 -65 -91 -190 -101 -190
-3 0 -67 69 -142 153 -189 210 -240 241 -388 235 l-76 -3 229 -255 c127 -140
238 -265 248 -278 16 -20 26 -23 73 -20 l55 3 -140 155 c-226 251 -250 279
-246 291 3 9 221 -225 385 -414 32 -36 34 -37 103 -37 l70 0 0 350 c0 221 -4
350 -10 350 -5 0 -17 12 -27 26 -17 26 -16 27 10 50 l27 23 0 351 0 350 -74 0
c-55 0 -75 -4 -78 -14 -4 -17 -388 -446 -400 -446 -4 0 -8 4 -8 8 0 5 88 106
195 225 107 119 195 219 195 222 0 3 -27 5 -60 5 -36 0 -60 -4 -60 -11z"/>
<path d="M0 742 l0 -742 481 0 481 0 -20 33 c-22 36 -932 1440 -938 1446 -2 2
-4 -329 -4 -737z"/>
<path d="M2234 759 c-3 -6 -1 -16 5 -22 8 -8 11 -5 11 11 0 24 -5 28 -16 11z"/>
</g>
</svg>
