<?xml version="1.0" standalone="no"?>
<!DOCTYPE svg PUBLIC "-//W3C//DTD SVG 20010904//EN"
 "http://www.w3.org/TR/2001/REC-SVG-20010904/DTD/svg10.dtd">
<svg version="1.0" xmlns="http://www.w3.org/2000/svg"
 width="225.000000pt" height="150.000000pt" viewBox="0 0 225.000000 150.000000"
 preserveAspectRatio="xMidYMid meet">

<g transform="translate(0.000000,150.000000) scale(0.100000,-0.100000)"
fill="#000000" stroke="none">
<path d="M2 1488 c11 -27 959 -1483 969 -1486 5 -2 9 0 9 5 0 16 -957 1487
-970 1491 -8 3 -11 -1 -8 -10z"/>
<path d="M1465 964 c-264 -295 -483 -538 -486 -540 -4 -2 -109 155 -235 349
-125 193 -236 361 -247 372 l-20 20 5 -20 c8 -30 477 -750 491 -752 7 -1 116
115 242 257 l230 258 115 4 c164 6 195 24 369 218 57 63 114 126 127 139 l23
25 45 -95 c42 -87 86 -222 86 -260 0 -9 -34 -54 -75 -100 -41 -46 -75 -88 -75
-93 0 -5 34 -46 76 -93 75 -82 76 -84 70 -125 -10 -63 -54 -184 -94 -262 l-36
-69 -20 25 c-12 14 -70 80 -130 147 -108 120 -178 177 -245 199 -34 12 -251
17 -251 6 0 -10 512 -574 521 -574 5 0 9 3 9 8 0 4 -110 129 -244 277 l-243
270 76 3 c148 6 199 -25 388 -235 75 -84 139 -153 142 -153 22 0 114 211 141
324 l19 79 -74 83 c-41 45 -75 86 -75 90 0 5 34 46 75 92 85 93 83 82 37 227
-27 87 -107 255 -121 255 -5 0 -72 -68 -147 -151 -153 -168 -194 -202 -267
-224 -53 -16 -187 -21 -187 -7 0 4 108 127 240 274 218 242 256 289 233 288
-5 -1 -224 -242 -488 -536z"/>
<path d="M1891 1281 c-107 -120 -197 -223 -199 -229 -11 -35 33 8 209 204 178
198 215 245 192 243 -4 0 -96 -98 -202 -218z"/>
<path d="M260 1290 c0 -11 684 -1068 706 -1090 11 -11 14 -11 14 -1 0 16 -702
1101 -712 1101 -5 0 -8 -4 -8 -10z"/>
<path d="M2015 863 c-48 -54 -90 -104 -92 -110 -5 -12 167 -214 188 -221 26
-10 0 28 -80 116 l-89 98 89 99 c49 55 89 103 89 108 0 20 -25 -2 -105 -90z"/>
<path d="M2215 770 c-17 -18 -17 -21 -1 -45 9 -14 21 -25 26 -25 14 0 12 24
-2 38 -9 9 -9 15 0 24 7 7 12 16 12 20 0 14 -16 9 -35 -12z"/>
<path d="M1692 445 c4 -19 387 -445 400 -445 5 0 8 4 6 9 -4 12 -398 451 -405
451 -2 0 -3 -7 -1 -15z"/>
</g>
</svg>
